# Blender v2.79 (sub 0) OBJ File: ''
# www.blender.org
mtllib missile.mtl
o Cone
v 0.007528 1.484873 -0.506537
v 0.361081 1.484873 -0.360091
v 0.507528 1.484873 -0.006537
v 0.361081 1.484873 0.347016
v 0.007528 1.484873 0.493463
v -0.346026 1.484873 0.347016
v -0.492472 1.484873 -0.006537
v -0.346026 1.484873 -0.360091
v 0.007528 2.484873 -0.006537
v 0.007528 -1.515127 -0.506537
v 0.007528 1.484873 -0.506537
v 0.361082 -1.515127 -0.360091
v 0.361082 1.484873 -0.360091
v 0.507528 -1.515127 -0.006537
v 0.507528 1.484873 -0.006537
v 0.361082 -1.515127 0.347016
v 0.361082 1.484873 0.347016
v 0.007528 -1.515127 0.493463
v 0.007528 1.484873 0.493463
v -0.346025 -1.515127 0.347016
v -0.346025 1.484873 0.347016
v -0.492472 -1.515127 -0.006537
v -0.492472 1.484873 -0.006537
v -0.346025 -1.515127 -0.360091
v -0.346025 1.484873 -0.360091
vt 0.812260 0.224352
vt 0.973757 0.000000
vt 0.877634 0.249822
vt 0.973757 0.266143
vt 0.597631 0.713631
vt 0.597631 0.985851
vt 0.528642 0.727986
vt 0.439740 0.766508
vt 0.812260 0.000000
vt 0.812260 0.272220
vt 0.743271 0.014355
vt 0.654369 0.052876
vt 0.597631 0.092999
vt 0.902369 0.534251
vt 0.951184 0.272220
vt 1.000000 0.534251
vt 0.666667 0.722253
vt 0.597631 0.656347
vt 0.597631 0.563142
vt 0.666667 0.497236
vt 0.764298 0.497236
vt 0.833333 0.563142
vt 0.833333 0.656347
vt 0.764298 0.722253
vt 0.902369 0.272220
vt 0.902369 0.985851
vt 0.833333 1.000000
vt 0.833333 0.286369
vt 0.500000 0.000000
vt 0.500000 0.713631
vt 0.402369 0.713631
vt 0.402369 0.000000
vt 0.235702 0.713632
vt 0.235702 0.000000
vt 0.304738 0.014149
vt 0.304738 0.727780
vt 0.402369 0.014149
vt 0.402369 0.727781
vt 0.235702 0.014149
vt 0.235702 0.727780
vt 0.166667 0.713631
vt 0.166667 0.000000
vt 0.069036 0.713631
vt 0.069036 0.000000
vt 0.597631 0.338125
vt 0.666667 0.272220
vt 0.764298 0.272220
vt 0.833333 0.338125
vt 0.833333 0.431330
vt 0.764298 0.497236
vt 0.666667 0.497236
vt 0.597631 0.431330
vt 0.000000 0.727780
vt 0.000000 0.014149
vt 0.500000 0.713631
vt 0.500000 0.000000
vt 0.597631 0.000000
vt 0.597631 0.713631
vt 0.833333 0.881363
vt 0.764298 0.947269
vt 0.666667 0.947269
vt 0.597631 0.881363
vt 0.597631 0.788158
vt 0.666667 0.722253
vt 0.764298 0.722253
vt 0.833333 0.788158
vn 0.3474 0.4194 -0.8387
vn 0.8387 0.4194 -0.3474
vn 0.8387 0.4194 0.3474
vn 0.3474 0.4194 0.8387
vn -0.3474 0.4194 0.8387
vn -0.8387 0.4194 0.3474
vn -0.8387 0.4194 -0.3474
vn -0.3474 0.4194 -0.8387
vn 0.0000 -1.0000 0.0000
vn 0.3827 0.0000 -0.9239
vn 0.9239 0.0000 -0.3827
vn 0.9239 0.0000 0.3827
vn 0.3827 0.0000 0.9239
vn -0.3827 0.0000 0.9239
vn -0.9239 0.0000 0.3827
vn 0.0000 1.0000 -0.0000
vn -0.9239 0.0000 -0.3827
vn -0.3827 0.0000 -0.9239
usemtl None
s off
f 1/1/1 9/2/1 2/3/1
f 2/3/2 9/2/2 3/4/2
f 3/5/3 9/6/3 4/7/3
f 4/7/4 9/6/4 5/8/4
f 5/9/5 9/10/5 6/11/5
f 6/11/6 9/10/6 7/12/6
f 7/12/7 9/10/7 8/13/7
f 8/14/8 9/15/8 1/16/8
f 1/17/9 2/18/9 3/19/9 4/20/9 5/21/9 6/22/9 7/23/9 8/24/9
f 10/25/10 11/26/10 13/27/10 12/28/10
f 12/29/11 13/30/11 15/31/11 14/32/11
f 14/33/12 15/34/12 17/35/12 16/36/12
f 16/36/13 17/35/13 19/37/13 18/38/13
f 18/39/14 19/40/14 21/41/14 20/42/14
f 20/42/15 21/41/15 23/43/15 22/44/15
f 13/45/16 11/46/16 25/47/16 23/48/16 21/49/16 19/50/16 17/51/16 15/52/16
f 22/44/17 23/43/17 25/53/17 24/54/17
f 24/55/18 25/56/18 11/57/18 10/58/18
f 10/59/9 12/60/9 14/61/9 16/62/9 18/63/9 20/64/9 22/65/9 24/66/9
